<?xml version="1.0" encoding="utf-8"?>
<!-- Generator: Adobe Illustrator 24.1.2, SVG Export Plug-In . SVG Version: 6.00 Build 0)  -->
<svg version="1.1" id="Layer_1" xmlns="http://www.w3.org/2000/svg" xmlns:xlink="http://www.w3.org/1999/xlink" x="0px" y="0px"
	 viewBox="0 0 283.5 425.2" style="enable-background:new 0 0 283.5 425.2;" xml:space="preserve">
<style type="text/css">
	.st0{fill:url(#SVGID_1_);}
	.st1{fill:url(#SVGID_2_);}
</style>
<radialGradient id="SVGID_1_" cx="162.5" cy="51.3898" r="184.92" gradientTransform="matrix(1 0 0 -1 0 425.8898)" gradientUnits="userSpaceOnUse">
	<stop  offset="0.1759" style="stop-color:#FFDE00"/>
	<stop  offset="0.6852" style="stop-color:#F39200"/>
	<stop  offset="0.7311" style="stop-color:#EE8800"/>
	<stop  offset="0.8106" style="stop-color:#E16F15"/>
	<stop  offset="0.9133" style="stop-color:#CE4420"/>
	<stop  offset="1" style="stop-color:#BE1622"/>
</radialGradient>
<path class="st0" d="M267.3,262.8c0,55.8-36.9,111.9-85.8,128.6c-15.2,2-30-2.6-41-10.8c-2.3-1.7-4.4-3.5-6.3-5.4
	c-10.2-10.3-14.7-23.2-14.7-38c0-9.1,1.7-18.9,4.8-29.1c-13.6,56.1,70.4,70.5,104.1,4.9c29.6-57.6,10.5-138.3,10.5-148.1
	C239,163.8,267.3,196.1,267.3,262.8L267.3,262.8z"/>
<radialGradient id="SVGID_2_" cx="108.0573" cy="213.2898" r="145.3469" gradientTransform="matrix(1 0 0 -1 0 425.8898)" gradientUnits="userSpaceOnUse">
	<stop  offset="0.1759" style="stop-color:#FFDE00"/>
	<stop  offset="0.6852" style="stop-color:#F39200"/>
	<stop  offset="0.7311" style="stop-color:#EE8800"/>
	<stop  offset="0.8106" style="stop-color:#E16F15"/>
	<stop  offset="0.9133" style="stop-color:#CE4420"/>
	<stop  offset="1" style="stop-color:#BE1622"/>
</radialGradient>
<path class="st1" d="M181.6,391.4c-9.5,3.3-19.5,5-29.7,5c-54.3,0-75.9-45.9-75.9-79.4c0-18.2,10.3-41.6,48.8-82.5
	c38.5-40.9,39.9-81.8,39.9-95.9s-3.8-43-16.8-61.2c0,0,2.8,45.7-30.9,91.4c-33.7,45.7-75.9,88-75.9,116.8
	c0,48.5,17.7,64.4,19.5,65.9c-2.7-2-44.2-33.9-44.2-85.1c0-52.9,47.1-88.7,64.9-113.4s45.7-63.2,33.7-124.4
	c0,0,84.4,29.2,85.2,117.5c0.3,34.7-18.7,83.2-49.5,117.5c-14.9,16.6-23,31.5-26.1,44.3c-3.1,10.3-4.8,20-4.8,29.1
	c0,14.8,4.5,27.8,14.7,38c1.9,1.9,4,3.7,6.3,5.4C151.6,388.8,166.4,393.4,181.6,391.4z"/>
</svg>
