<?xml version="1.0" encoding="UTF-8"?>
<svg width="210mm" height="297mm" version="1.1" viewBox="0 0 744.09448819 1052.3622047" xmlns="http://www.w3.org/2000/svg">
 <g fill="#1a1a1a" fill-rule="evenodd">
  <path d="m1556.1 646.64c0 59.839-214.79 140.35-518.75 177.11-8.1688 0.98803-18.231 11.091-26.524 12.001-79.403 8.7115-164.36 13.772-252.66 13.772-75.733 0-149-3.7222-218.42-10.277-15.136-1.4292-17.274-12.147-32.029-13.837-311.34-35.65-547.49-118.01-547.49-178.77 1e-3 -76.846 360.91-64.414 801.6-64.414s794.28-12.432 794.28 64.414z"/>
  <path d="m741.57-463.46c-5.1788 0-9.3453 4.1665-9.3453 9.3454v131.86c-46.806-2.3995-93.251 0.75086-138.72 16.94-16.806 19.861-45.965 83.32-36.359 151.98 0 0-0.46088 33.333 23.808 26.023 14.946 143.23-28.705 250.45 8.1518 252.28 9.7762 0.48677 11.69-9.1196 13.432-11.975v374.03c-2.9061 57.958-24.015 102.34-19.156 102.27l364.42-0.4557c3.3286-4e-3 -4.3591-19.175-10.842-56.982-7.5961-44.297-21.128-12.501-21.128-44.835l-0.31591-538.23c8.6727 7.3864 14.718 6.5806 19.894 3.7926 31.124-16.764 0.84355-96.241-9.0113-149.27-7.8343-42.16-18.004-104.94-19.338-105.07-44.201-4.5497-88.735-12.316-133.1-17.092v-135.26c0-5.1789-4.1665-9.3454-9.3453-9.3454h-23.039z"/>
  <path d="m741.52-859.31c-89.046 135.82-78.394 271.39-36.8 337.74 33.723 53.794 17.517 68.478 12.504 66.982-299.81-89.486 45.44-632.9 82.912-513.71 84.526 286.55 197.15 430.64-1.0067 511.95-2.4354 0.9989-62.43-20.025-9.4147-47.766 96.499-50.495-45.949-268.9-48.194-355.19z"/>
 </g>
</svg>
